<?xml version="1.0" encoding="UTF-8"?>
<!-- Generator: Adobe Illustrator 21.1.0, SVG Export Plug-In . SVG Version: 6.00 Build 0)  -->
<svg version="1.1" id="Layer_1" xmlns="http://www.w3.org/2000/svg" xmlns:xlink="http://www.w3.org/1999/xlink" x="0px" y="0px" viewBox="0 0 300 300" style="enable-background:new 0 0 300 300;" xml:space="preserve">
<style type="text/css">
	.st0{fill:#E6595A;}
	.st1{fill:#001288;}
	.st2{fill:#511587;}
</style>
<g>
	<path class="st0" d="M187.3,115.2c-29.8-1.9-44.7-1.9-74.5,0c-5.1,0.3-8.9,5.1-8.6,10.5c0.1,1,0.1,1.6,0.1,2.6   c0.6,10.2,0.9,15.2,1.5,25.4c0.2,3.5,0.3,5.3,0.5,8.8c0.3,5.4,4.4,9.5,9.1,9.2c27.6-1.8,41.5-1.8,69.1,0c4.7,0.3,8.8-3.8,9.1-9.2   c0.2-3.5,0.3-5.3,0.5-8.8c0.6-10.2,0.9-15.2,1.5-25.4c0.1-1,0.1-1.5,0.1-2.6C196.2,120.3,192.3,115.6,187.3,115.2z"/>
	<path class="st1" d="M288.1,130.6c-29.3-7.1-44.2-9.7-73.9-13c-5.1-0.6-9.5,3.5-9.9,8.9c-0.1,1-0.1,1.5-0.2,2.6   c-0.7,10.1-1.1,15.2-1.8,25.4c-0.2,3.5-0.4,5.2-0.6,8.7c-0.4,5.4,3.1,10.2,7.8,10.7c27.6,3,41.3,5.5,68.5,12.1   c4.7,1.1,9.2-2.2,10.3-7.5c0.7-3.4,1-5.1,1.6-8.6c1.9-9.9,2.9-14.9,4.8-24.9c0.2-1,0.3-1.5,0.5-2.5   C296.4,137.2,293.1,131.9,288.1,130.6z"/>
	<path class="st2" d="M85.7,117.6c-29.7,3.3-44.5,5.9-73.9,13c-5,1.2-8.2,6.6-7.2,11.9c0.2,1,0.3,1.5,0.5,2.5   C7.1,155,8,160,9.9,169.9c0.7,3.4,1,5.1,1.6,8.6c1,5.3,5.6,8.6,10.3,7.5c27.2-6.6,41-9,68.5-12.1c4.7-0.5,8.2-5.3,7.8-10.7   c-0.2-3.5-0.4-5.3-0.6-8.8c-0.7-10.2-1.1-15.2-1.8-25.3c-0.1-1-0.1-1.5-0.2-2.6C95.2,121.1,90.8,117,85.7,117.6z"/>
</g>
</svg>