<?xml version="1.0" encoding="utf-8"?>
<!-- Generator: Adobe Illustrator 17.0.0, SVG Export Plug-In . SVG Version: 6.00 Build 0)  -->
<!DOCTYPE svg PUBLIC "-//W3C//DTD SVG 1.1//EN" "http://www.w3.org/Graphics/SVG/1.1/DTD/svg11.dtd">
<svg version="1.1" id="Capa_1" xmlns="http://www.w3.org/2000/svg" xmlns:xlink="http://www.w3.org/1999/xlink" x="0px" y="0px"
	 width="152px" height="60px" viewBox="0 0 152 60" enable-background="new 0 0 152 60" xml:space="preserve">
<g>
	<g>
		<path fill="#FFFFFF" d="M26.106,26.422c-1.068-1.397-2.427-2.534-4.042-3.379c-1.628-0.85-3.579-1.282-5.8-1.282
			c-1.769,0-3.418,0.358-4.9,1.061c-0.765,0.364-1.468,0.84-2.101,1.425v-0.815c0-0.528-0.428-0.958-0.958-0.958H1.418
			c-0.529,0-0.958,0.43-0.958,0.958v35.61C0.459,59.571,0.888,60,1.418,60h7.244c0.529,0,0.958-0.429,0.958-0.958V48.946
			c0.638,0.555,1.346,1.021,2.121,1.394c1.502,0.723,3.161,1.09,4.929,1.09c2.085,0,3.94-0.413,5.517-1.23
			c1.564-0.807,2.89-1.909,3.941-3.276c1.038-1.346,1.821-2.911,2.328-4.653c0.5-1.711,0.752-3.518,0.752-5.369
			c0-1.948-0.251-3.846-0.748-5.639C27.954,29.435,27.161,27.807,26.106,26.422z M20.05,36.698c0,0.984-0.097,1.968-0.288,2.923
			c-0.179,0.895-0.485,1.685-0.911,2.347c-0.417,0.646-0.949,1.155-1.624,1.56c-0.644,0.383-1.483,0.578-2.494,0.578
			c-0.98,0-1.813-0.196-2.476-0.583c-0.691-0.403-1.228-0.912-1.642-1.554c-0.43-0.665-0.746-1.459-0.94-2.362
			c-0.207-0.948-0.312-1.926-0.312-2.908c0-1.021,0.098-2.021,0.289-2.976c0.18-0.901,0.488-1.702,0.917-2.381
			c0.417-0.662,0.949-1.189,1.63-1.608c0.642-0.397,1.478-0.597,2.481-0.597c0.971,0,1.789,0.2,2.431,0.596
			c0.673,0.416,1.231,0.967,1.66,1.638c0.445,0.698,0.772,1.512,0.968,2.419C19.946,34.74,20.05,35.718,20.05,36.698z"/>
		<path fill="#FFFFFF" d="M58.689,47.24c-0.13-1.039-0.196-2.148-0.196-3.299V30.219c0-1.801-0.424-3.289-1.258-4.421
			c-0.804-1.092-1.851-1.954-3.109-2.563c-1.208-0.586-2.558-0.984-4.012-1.185c-2.949-0.405-5.854-0.407-8.71,0.163
			c-1.544,0.308-2.957,0.836-4.202,1.568c-1.278,0.752-2.344,1.761-3.167,2.998c-0.84,1.26-1.324,2.845-1.436,4.71
			c-0.015,0.263,0.079,0.521,0.259,0.714c0.182,0.191,0.434,0.301,0.698,0.301h7.245c0.495,0,0.907-0.376,0.953-0.868
			c0.109-1.142,0.464-1.944,1.051-2.385c0.644-0.483,1.584-0.727,2.792-0.727c0.589,0,1.15,0.039,1.667,0.115
			c0.436,0.067,0.816,0.197,1.131,0.385c0.282,0.169,0.503,0.403,0.677,0.716c0.171,0.308,0.262,0.792,0.263,1.439
			c0.026,0.572-0.155,0.795-0.313,0.927c-0.366,0.3-0.892,0.536-1.564,0.704c-0.769,0.192-1.665,0.338-2.665,0.434
			c-1.076,0.104-2.176,0.245-3.27,0.416c-1.118,0.174-2.241,0.413-3.343,0.71c-1.174,0.317-2.235,0.801-3.152,1.438
			c-0.955,0.663-1.741,1.555-2.336,2.65c-0.602,1.106-0.908,2.504-0.908,4.157c0,1.496,0.262,2.815,0.778,3.924
			c0.518,1.118,1.255,2.06,2.187,2.796c0.911,0.722,1.984,1.259,3.192,1.601c1.17,0.328,2.442,0.494,3.78,0.494
			c1.72,0,3.427-0.253,5.074-0.756c1.133-0.345,2.178-0.866,3.122-1.556c0.079,0.335,0.174,0.668,0.282,0.996
			c0.13,0.39,0.497,0.653,0.909,0.653h7.346c0.348,0,0.669-0.19,0.838-0.494c0.169-0.306,0.159-0.678-0.026-0.973
			C59.083,49.009,58.836,48.416,58.689,47.24z M49.333,38.484v1.121c0,0.362-0.041,0.872-0.12,1.512
			c-0.07,0.554-0.263,1.115-0.572,1.664c-0.293,0.515-0.763,0.974-1.398,1.361c-0.626,0.382-1.576,0.575-2.82,0.575
			c-0.514,0-1.022-0.046-1.506-0.136c-0.425-0.079-0.795-0.217-1.099-0.408c-0.267-0.167-0.473-0.391-0.633-0.688
			c-0.162-0.298-0.242-0.694-0.242-1.177c0-0.517,0.082-0.931,0.242-1.231c0.17-0.318,0.39-0.572,0.67-0.781
			c0.304-0.225,0.675-0.41,1.101-0.547c0.486-0.156,0.987-0.283,1.481-0.376c0.538-0.095,1.103-0.178,1.679-0.247
			c0.605-0.071,1.186-0.161,1.729-0.266C48.371,38.759,48.872,38.633,49.333,38.484z"/>
		<path fill="#FFFFFF" d="M81.322,33.257l9.379-9.139c0.279-0.273,0.366-0.687,0.219-1.047c-0.145-0.361-0.497-0.598-0.886-0.598
			h-8.572c-0.262,0-0.51,0.107-0.691,0.294l-7.483,7.777V13.382c0-0.528-0.429-0.957-0.958-0.957h-7.245
			c-0.528,0-0.957,0.429-0.957,0.957v36.426c0,0.528,0.429,0.958,0.957,0.958h7.245c0.529,0,0.958-0.43,0.958-0.958v-8.673
			l1.655-1.595l6.622,10.77c0.174,0.285,0.482,0.457,0.816,0.457h8.774c0.353,0,0.678-0.194,0.843-0.506
			c0.168-0.31,0.151-0.689-0.045-0.982L81.322,33.257z"/>
		<path fill="#FFFFFF" d="M111.88,33.257l9.379-9.139c0.279-0.273,0.365-0.687,0.219-1.047c-0.147-0.361-0.498-0.598-0.887-0.598
			h-8.57c-0.262,0-0.51,0.107-0.691,0.294l-7.484,7.777V13.382c0-0.528-0.429-0.957-0.958-0.957h-7.244
			c-0.529,0-0.958,0.429-0.958,0.957v36.426c0,0.528,0.429,0.958,0.958,0.958h7.244c0.529,0,0.958-0.43,0.958-0.958v-8.673
			l1.655-1.595l6.622,10.77c0.174,0.285,0.482,0.457,0.816,0.457h8.774c0.353,0,0.678-0.194,0.844-0.506
			c0.167-0.31,0.15-0.689-0.045-0.982L111.88,33.257z"/>
		<path fill="#FFFFFF" d="M150.956,32.277c-0.504-1.981-1.338-3.775-2.476-5.33c-1.156-1.574-2.647-2.845-4.438-3.777
			c-1.796-0.936-3.919-1.409-6.309-1.409c-2.13,0-4.103,0.387-5.865,1.149c-1.759,0.762-3.298,1.822-4.57,3.15
			c-1.275,1.329-2.27,2.922-2.959,4.736c-0.684,1.802-1.031,3.77-1.031,5.85c0,2.146,0.337,4.147,1.003,5.944
			c0.671,1.813,1.64,3.4,2.879,4.712c1.25,1.324,2.79,2.354,4.577,3.065c1.771,0.705,3.779,1.063,5.966,1.063
			c3.167,0,5.916-0.737,8.172-2.192c2.29-1.477,4.001-3.932,5.087-7.297c0.094-0.291,0.042-0.61-0.138-0.858
			c-0.18-0.248-0.468-0.395-0.775-0.395h-6.377c-0.426,0-0.8,0.28-0.919,0.69c-0.174,0.596-0.702,1.203-1.565,1.803
			c-0.896,0.622-1.952,0.925-3.229,0.925c-1.774,0-3.129-0.442-4.027-1.313c-0.749-0.724-1.223-1.883-1.414-3.455h17.993
			c0.504,0,0.922-0.39,0.956-0.894C151.635,36.31,151.455,34.237,150.956,32.277z M137.529,29.135c1.48,0,2.571,0.375,3.245,1.115
			c0.562,0.617,1.001,1.481,1.315,2.58h-9.461c0.038-0.164,0.083-0.334,0.134-0.511c0.15-0.52,0.418-1.026,0.799-1.506
			c0.371-0.467,0.884-0.87,1.521-1.198C135.707,29.297,136.531,29.135,137.529,29.135z"/>
	</g>
	<g>
		<path fill="#FF5959" d="M89.761,0.146c-3.552-0.195-5.335-0.195-8.887,0c-0.607,0.034-1.067,0.519-1.027,1.079
			c0.006,0.105,0.01,0.16,0.017,0.264c0.072,1.045,0.108,1.564,0.18,2.609c0.025,0.359,0.038,0.539,0.062,0.899
			c0.038,0.559,0.526,0.979,1.089,0.948c3.295-0.182,4.95-0.182,8.246,0c0.564,0.031,1.048-0.388,1.087-0.948
			c0.025-0.36,0.038-0.54,0.062-0.899c0.073-1.045,0.107-1.564,0.18-2.609c0.006-0.104,0.01-0.159,0.017-0.264
			C90.828,0.666,90.368,0.181,89.761,0.146z"/>
		<path fill="#000A8B" d="M101.793,1.728c-3.499-0.731-5.267-0.999-8.81-1.338c-0.605-0.058-1.133,0.356-1.178,0.913
			c-0.01,0.104-0.013,0.159-0.023,0.263c-0.084,1.042-0.127,1.562-0.212,2.604c-0.029,0.36-0.044,0.539-0.073,0.898
			c-0.045,0.559,0.372,1.049,0.933,1.103c3.289,0.315,4.928,0.561,8.175,1.242c0.554,0.115,1.101-0.227,1.223-0.773
			c0.079-0.351,0.115-0.528,0.194-0.88c0.23-1.021,0.344-1.533,0.572-2.554c0.024-0.102,0.034-0.153,0.058-0.255
			C102.775,2.406,102.391,1.854,101.793,1.728z"/>
		<path fill="#FFFFFF" d="M77.653,0.39c-3.544,0.338-5.311,0.607-8.81,1.338c-0.598,0.126-0.981,0.678-0.859,1.223
			c0.023,0.102,0.036,0.153,0.058,0.255c0.227,1.021,0.343,1.533,0.571,2.554c0.077,0.351,0.116,0.528,0.195,0.88
			c0.122,0.546,0.67,0.888,1.225,0.773c3.247-0.68,4.886-0.928,8.175-1.243c0.561-0.054,0.978-0.543,0.931-1.102
			c-0.029-0.359-0.043-0.539-0.072-0.898c-0.086-1.042-0.129-1.562-0.215-2.604c-0.009-0.104-0.012-0.159-0.02-0.263
			C78.787,0.746,78.257,0.332,77.653,0.39z"/>
	</g>
</g>
</svg>
